<svg xmlns="http://www.w3.org/2000/svg" style="display: none;">
  <symbol id="ph-baby" viewBox="0 0 256 256">
    <path d="M92,140a12,12,0,1,1,12-12A12,12,0,0,1,92,140Zm72-24a12,12,0,1,0,12,12A12,12,0,0,0,164,116Zm-12.27,45.23a45,45,0,0,1-47.46,0,8,8,0,0,0-8.54,13.54,61,61,0,0,0,64.54,0,8,8,0,0,0-8.54-13.54ZM232,128A104,104,0,1,1,128,24,104.11,104.11,0,0,1,232,128Zm-16,0a88.11,88.11,0,0,0-84.09-87.91C120.32,56.38,120,71.88,120,72a8,8,0,0,0,16,0,8,8,0,0,1,16,0,24,24,0,0,1-48,0c0-.73.13-14.3,8.46-30.63A88,88,0,1,0,216,128Z"/>
  </symbol>
  <symbol id="ph-house" viewBox="0 0 256 256">
    <path d="M219.31,108.68l-80-80a16,16,0,0,0-22.62,0l-80,80A15.87,15.87,0,0,0,32,120v96a8,8,0,0,0,8,8h64a8,8,0,0,0,8-8V160h32v56a8,8,0,0,0,8,8h64a8,8,0,0,0,8-8V120A15.87,15.87,0,0,0,219.31,108.68ZM208,208H160V152a8,8,0,0,0-8-8H104a8,8,0,0,0-8,8v56H48V120l80-80,80,80Z"/>
  </symbol>
  <symbol id="ph-drop" viewBox="0 0 256 256">
    <path d="M174,47.75a254.19,254.19,0,0,0-41.45-38.3,8,8,0,0,0-9.18,0A254.19,254.19,0,0,0,82,47.75C54.51,79.32,40,112.6,40,144a88,88,0,0,0,176,0C216,112.6,201.49,79.32,174,47.75ZM128,216a72.08,72.08,0,0,1-72-72c0-57.23,55.47-105,72-118,16.53,13,72,60.75,72,118A72.08,72.08,0,0,1,128,216Zm55.89-62.66a57.6,57.6,0,0,1-46.56,46.55A8.75,8.75,0,0,1,136,200a8,8,0,0,1-1.32-15.89c16.57-2.79,30.63-16.85,33.44-33.45a8,8,0,0,1,15.78,2.68Z"/>
  </symbol>
  <symbol id="ph-jar" viewBox="0 0 256 256">
    <path d="M184,48.81V32a16,16,0,0,0-16-16H88A16,16,0,0,0,72,32V48.81A40.05,40.05,0,0,0,40,88V200a40,40,0,0,0,40,40h96a40,40,0,0,0,40-40V88A40.05,40.05,0,0,0,184,48.81ZM168,48H152V32h16Zm-48,0V32h16V48ZM104,32V48H88V32Zm96,168a24,24,0,0,1-24,24H80a24,24,0,0,1-24-24V88A24,24,0,0,1,80,64h96a24,24,0,0,1,24,24Z"/>
  </symbol>
  <symbol id="ph-jar-label" viewBox="0 0 256 256">
    <path d="M184,48.81V32a16,16,0,0,0-16-16H88A16,16,0,0,0,72,32V48.81A40.05,40.05,0,0,0,40,88V200a40,40,0,0,0,40,40h96a40,40,0,0,0,40-40V88A40.05,40.05,0,0,0,184,48.81ZM56,112H200v64H56ZM168,48H152V32h16Zm-48,0V32h16V48ZM104,32V48H88V32ZM80,64h96a24,24,0,0,1,24,24v8H56V88A24,24,0,0,1,80,64Zm96,160H80a24,24,0,0,1-24-24v-8H200v8A24,24,0,0,1,176,224Z"/>
  </symbol>
  <symbol id="ph-flask" viewBox="0 0 256 256">
    <path d="M221.69,199.77,160,96.92V40h8a8,8,0,0,0,0-16H88a8,8,0,0,0,0,16h8V96.92L34.31,199.77A16,16,0,0,0,48,224H208a16,16,0,0,0,13.72-24.23ZM110.86,103.25A7.93,7.93,0,0,0,112,99.14V40h32V99.14a7.93,7.93,0,0,0,1.14,4.11L183.36,167c-12,2.37-29.07,1.37-51.75-10.11-15.91-8.05-31.05-12.32-45.22-12.81ZM48,208l28.54-47.58c14.25-1.74,30.31,1.85,47.82,10.72,19,9.61,35,12.88,48,12.88a69.89,69.89,0,0,0,19.55-2.7L208,208Z"/>
  </symbol>
  <symbol id="ph-bowl-food" viewBox="0 0 256 256">
    <path d="M224,104h-8.37a88,88,0,0,0-175.26,0H32a8,8,0,0,0-8,8,104.35,104.35,0,0,0,56,92.28V208a16,16,0,0,0,16,16h64a16,16,0,0,0,16-16v-3.72A104.35,104.35,0,0,0,232,112,8,8,0,0,0,224,104Zm-24.46,0H148.12a71.84,71.84,0,0,1,41.27-29.57A71.45,71.45,0,0,1,199.54,104ZM173.48,56.23q2.75,2.25,5.27,4.75a87.92,87.92,0,0,0-49.15,43H100.1A72.26,72.26,0,0,1,168,56C169.83,56,171.66,56.09,173.48,56.23ZM128,40a71.87,71.87,0,0,1,19,2.57A88.36,88.36,0,0,0,83.33,104H56.46A72.08,72.08,0,0,1,128,40Zm36.66,152A8,8,0,0,0,160,199.3V208H96v-8.7A8,8,0,0,0,91.34,192a88.29,88.29,0,0,1-51-72H215.63A88.29,88.29,0,0,1,164.66,192Z"/>
  </symbol>
  <symbol id="ph-moon-stars" viewBox="0 0 256 256">
    <path d="M240,96a8,8,0,0,1-8,8H216v16a8,8,0,0,1-16,0V104H184a8,8,0,0,1,0-16h16V72a8,8,0,0,1,16,0V88h16A8,8,0,0,1,240,96ZM144,56h8v8a8,8,0,0,0,16,0V56h8a8,8,0,0,0,0-16h-8V32a8,8,0,0,0-16,0v8h-8a8,8,0,0,0,0,16Zm72.77,97a8,8,0,0,1,1.43,8A96,96,0,1,1,95.07,37.8a8,8,0,0,1,10.6,9.06A88.07,88.07,0,0,0,209.14,150.33,8,8,0,0,1,216.77,153Zm-19.39,14.88c-1.79.09-3.59.14-5.38.14A104.11,104.11,0,0,1,88,64c0-1.79,0-3.59.14-5.38A80,80,0,1,0,197.38,167.86Z"/>
  </symbol>
  <symbol id="ph-cloud-moon" viewBox="0 0 256 256">
    <path d="M172,72a76.45,76.45,0,0,0-12.36,1A71.93,71.93,0,0,0,104.17,9.83a8,8,0,0,0-9.59,9.58A56.05,56.05,0,0,1,40,88a56.45,56.45,0,0,1-12.59-1.42,8,8,0,0,0-9.59,9.59,72.22,72.22,0,0,0,32.29,45.06A52,52,0,0,0,92,224h80a76,76,0,0,0,0-152ZM37.37,104c.87,0,1.75,0,2.63,0a72.08,72.08,0,0,0,72-72c0-.89,0-1.78,0-2.67a55.63,55.63,0,0,1,32,48,76.28,76.28,0,0,0-43,43.4A52,52,0,0,0,62,129.59,56.22,56.22,0,0,1,37.37,104ZM172,208H92a36,36,0,1,1,4.78-71.69c-.37,2.37-.63,4.79-.77,7.23a8,8,0,0,0,16,.92,58.91,58.91,0,0,1,1.88-11.81c0-.16.09-.32.12-.48A60.06,60.06,0,1,1,172,208Z"/>
  </symbol>
  <symbol id="ph-sliders-horizontal" viewBox="0 0 256 256">
    <path d="M40,88H73a32,32,0,0,0,62,0h81a8,8,0,0,0,0-16H135a32,32,0,0,0-62,0H40a8,8,0,0,0,0,16Zm64-24A16,16,0,1,1,88,80,16,16,0,0,1,104,64ZM216,168H199a32,32,0,0,0-62,0H40a8,8,0,0,0,0,16h97a32,32,0,0,0,62,0h17a8,8,0,0,0,0-16Zm-48,24a16,16,0,1,1,16-16A16,16,0,0,1,168,192Z"/>
  </symbol>
  <symbol id="ph-pill" viewBox="0 0 256 256">
    <path d="M216.42,39.6a53.26,53.26,0,0,0-75.32,0L39.6,141.09a53.26,53.26,0,0,0,75.32,75.31h0L216.43,114.91A53.31,53.31,0,0,0,216.42,39.6ZM103.61,205.09h0a37.26,37.26,0,0,1-52.7-52.69L96,107.31,148.7,160ZM205.11,103.6,160,148.69,107.32,96l45.1-45.09a37.26,37.26,0,0,1,52.69,52.69ZM189.68,82.34a8,8,0,0,1,0,11.32l-24,24a8,8,0,1,1-11.31-11.32l24-24A8,8,0,0,1,189.68,82.34Z"/>
  </symbol>
  <symbol id="ph-plus-circle" viewBox="0 0 256 256">
    <path d="M128,24A104,104,0,1,0,232,128,104.11,104.11,0,0,0,128,24Zm0,192a88,88,0,1,1,88-88A88.1,88.1,0,0,1,128,216Zm48-88a8,8,0,0,1-8,8H136v32a8,8,0,0,1-16,0V136H88a8,8,0,0,1,0-16h32V88a8,8,0,0,1,16,0v32h32A8,8,0,0,1,176,128Z"/>
  </symbol>
  <symbol id="ph-caret-left" viewBox="0 0 256 256">
    <path d="M165.66,202.34a8,8,0,0,1-11.32,11.32l-80-80a8,8,0,0,1,0-11.32l80-80a8,8,0,0,1,11.32,11.32L91.31,128Z"/>
  </symbol>
  <symbol id="ph-caret-right" viewBox="0 0 256 256">
    <path d="M181.66,133.66l-80,80a8,8,0,0,1-11.32-11.32L164.69,128,90.34,53.66a8,8,0,0,1,11.32-11.32l80,80A8,8,0,0,1,181.66,133.66Z"/>
  </symbol>
  <symbol id="ph-x" viewBox="0 0 256 256">
    <path d="M205.66,194.34a8,8,0,0,1-11.32,11.32L128,139.31,61.66,205.66a8,8,0,0,1-11.32-11.32L116.69,128,50.34,61.66A8,8,0,0,1,61.66,50.34L128,116.69l66.34-66.35a8,8,0,0,1,11.32,11.32L139.31,128Z"/>
  </symbol>
</svg>